# xmcd CD database file
#
# Track frame offsets:
#	150
#	26026
#	44872
#	53310
#	60807
#
# Disc length: 916 seconds
#
# Revision: 0
# Processed by: cddbd v1.5.1PL0 Copyright (c) Steve Scherf et al.
# Submitted via: CDex 1.51
#
DISCID=37039205
DTITLE=Boney James -  - Pure
DYEAR=2004
DGENRE=Jazz
TTITLE0=Boney James feat. Bilal - Better With Time
TTITLE1=Boney James - Here She Comes
TTITLE2=Boney James feat. Dwele - Break Of Dawn (snippet)
TTITLE3=Boney James - 2:01 A.M. (snippet)
TTITLE4=Boney James feat. Joe Sample - Stone Groove
EXTD=YEAR: 2004
EXTT0=
EXTT1=
EXTT2=
EXTT3=
EXTT4=
PLAYORDER=
